<?xml version="1.0" encoding="utf-8" standalone="no"?>
<svg version="1.1"
     xmlns="http://www.w3.org/2000/svg"
     xmlns:xlink="http://www.w3.org/1999/xlink"
     viewBox="-150 -300 600 600"
     width="480"
     height="480"
>
<title>Mercator series</title>

<desc>
	This is the file
		http://commons.wikimedia.org/wiki/File:Mercator_series.svg

	It shows the Mercator series
		-\sum_{k=1}^n \frac{(1-x)^k}k
	for the values n=1, n=2, n=3, and n=10 together with the
	natural Logarithm. In the interval (0, 2] the series converges
	to wars the natural logarithm.
</desc>

<defs>
	<!-- pstricks-style arrow, zoom 3 -->
	<marker id="Arrow" refX="6" refY="5" markerUnits="strokeWidth"
			markerWidth="12" markerHeight="9" orient="auto">
		<g transform="translate(6 5)">
			<path transform="scale(0.8)" d="M -1 0 L -6 4 L 6 0 L -6 -5 z"/>
		</g>
	</marker>

	<path id="tick" d="M -0.1,0 H 0.1" />

	<pattern id="schraffur" width="0.1" height="0.1" patternUnits="userSpaceOnUse">
		<!-- Schraffur -->
		<g style="stroke:#000; stroke-width:0.004; stroke-linecap:butt;" >
			<path d="M 0 0 l 0.1 0.1"/>
		</g>
	</pattern>

	<!--
		function mercator (t) {
		   var n = 10;
		   var s = 0;
		   for (var i=1; i <= n; i++) {
			  var z = (i%2 == 0) ? -1 : 1;
			  s += z*pow(t-1,i)/i;
		   }
		   return s;
		}

		x(t) = 1.5*t
		y(t) = mercator(t)
		t    = -1 ... 3
	-->
	<path id="mercator-1" d="M -1.5,-2  L 4.5,2" />
	<path id="mercator-2" d="M -1.5,-4  C 0.5,0 2.5,1.33333 4.5,0" />
	<path id="mercator-3" d="M -1.5,-6.66667  C 0.5,2.66667 2.5,-1.33333 4.5,2.66667" />
	<path id="mercator-10" d = "
		M -0.3,-6.251571
		C -0.2,-4.520992 -0.1,-3.595635 0,-2.928968
		S 0.2,-1.876417 0.3,-1.578875
		S 0.5,-1.08121 0.6,-0.915551
		S 0.8,-0.621919 0.9,-0.51082
		S 1.1,-0.306477 1.2,-0.223144
		S 1.4,-0.066667 1.5,0
		S 1.7,0.126766 1.8,0.182322
		S 2,0.288855 2.1,0.336469
		S 2.3,0.428376 2.4,0.469791
		S 2.6,0.550215 2.7,0.583275
		S 2.9,0.645635 3,0.645635
		S 3.2,0.623466 3.3,0.466141
		S 3.5,0.034996 3.6,-0.740712
		S 3.8,-2.752034 3.9,-5.545653
		" />

	<!--
		x(t) = 1.5*exp(t)
		y(t) = t
		t    = -4 ... 5
	-->
	<path id="ln" d="
		M 0.027473,-4
		C 0.031594,-3.85 0.036624,-3.7 0.043087,-3.55
		S 0.057438,-3.25 0.067574,-3.1
		S 0.09008,-2.8 0.105977,-2.65
		S 0.141274,-2.35 0.166205,-2.2
		S 0.221562,-1.9 0.260661,-1.75
		S 0.347478,-1.45 0.408798,-1.3
		S 0.544954,-1 0.641122,-0.85
		S 0.854658,-0.55 1.00548,-0.4
		S 1.340371,-0.1 1.576907,0.05
		S 2.10212,0.35 2.473082,0.5
		S 3.29678,0.8 3.878564,0.95
		S 5.17038,1.25 6.0828,1.4
		" />

	<style type="text/css">
	.rm {font-size:30px; stroke-width:0px; font-style:normal; font-variant:normal; stroke:black; font-family: Times New Roman;}
	.it {font-size:30px; stroke-width:0px; font-style:italic; font-variant:normal; stroke:black; font-family: Times New Roman;}
	.rm2{font-size:24px; stroke-width:0px; font-style:normal; font-variant:normal; stroke:black; font-family: Times New Roman;}
	.it2{font-size:24px; stroke-width:0px; font-style:italic; font-variant:normal; stroke:black; font-family: Times New Roman;}
	</style>

</defs>

<!-- ################################################################### -->

<!-- Typesetting Text in SVG is plain Horror.
	 Scaling does not work as expected and font metrics like
	 anchor points get garbaged. So we zoom the complete image
	 except the texts instead. -->

<g transform="scale(100)">

	<!-- Background -->
	<rect x="-1.5" y="-3" width="100%" height="100%" style="fill:white" />

	<!-- Schraffur -->
	<rect x="-2" y="-3.5" width="2" height="7" fill="url(#schraffur)" style="stroke:none;" />
	<rect x="3"  y="-3.5" width="2" height="7" fill="url(#schraffur)" style="stroke:none;" />

	<!-- Raster -->
	<g style="stroke:#000; stroke-width:0.004; stroke-linecap:butt; fill:none;" >
		<g style="stroke-dasharray:0.01 0.02">
			<path d="M 1.5 -3 V 3" />
			<path d="M -1.5 -2 H 5" />
			<path d="M -1.5 -1 H 5" />
			<path d="M -1.5  1 H 5" />
			<path d="M -1.5  2 H 5" />
		</g>

		<g style="stroke-dasharray:0.2 0.05">
			<path d="M 3 -3 V 3" />
		</g>
	</g>
</g>

<!-- Labels for x-Axis -->
<g transform="translate (0 40)" style="text-anchor:middle;">
	<g transform="translate (150 0)">
		<text class="rm">1</text>
	</g>
	<g transform="translate (300 0)">
		<text class="rm">2</text>
	</g>
</g>

<!-- &#402; = &fnof; -->
<!-- Labels for y-Axis -->
<g transform="translate (-13 10)" style="text-anchor:end;">
	<g transform="translate (0 -200)">
		<text class="rm">2</text>
	</g>
	<g transform="translate (0 -100)">
		<text class="rm">1</text>
	</g>
	<g transform="translate (0.3 100)">
		<text class="rm">&#8722;1</text>
	</g>
	<g transform="translate (0.3 200)">
		<text class="rm">&#8722;2</text>
	</g>
</g>

<!-- Labels for Graphs -->
<text fill="maroon" x="385" y="-135" class="rm2"><tspan class="it2">n</tspan> = 1</text>
<text fill="green"  x="385" y="-40" class="rm2"><tspan class="it2">n</tspan> = 2</text>
<text fill="#a80"   x="385" y="-250" class="rm2"><tspan class="it2">n</tspan> = 3</text>
<text fill="blue"   x="375" y="120" class="rm2"><tspan class="it2">n</tspan> = 10</text>
<text fill="red"    x="130" y="-20" class="rm">ln <tspan class="it">x</tspan></text>

<g transform="scale(100 -100)" style="fill:none;" >

	<!-- Ticks -->
	<g style="stroke:black; stroke-width:0.012;" >
		<use xlink:href="#tick" y="-2"/>
		<use xlink:href="#tick" y="-1"/>
		<use xlink:href="#tick" y="1"/>
		<use xlink:href="#tick" y="2"/>
		<use xlink:href="#tick" y="1.5" transform="rotate(-90)" />
		<use xlink:href="#tick" y="3.0" transform="rotate(-90)" />
	</g>

	<!-- Axes -->
	<g style="stroke:black; stroke-width:0.02" >
	  <path d="M -1.5 0 H 4.38" marker-end="url(#Arrow)"/>
	  <path d="M 0 -3   V 2.88" marker-end="url(#Arrow)"/>
	</g>

	<!--
		The Functions
		We incorporated the Scaling of 1.5 in
		x-Direction directly into the Paths so that
		scaling won't affect Stoke-Widths
	-->

	<!-- Mercator Series -->
	<g style="stroke-width:0.02">
		<use xlink:href="#mercator-1"  stroke="maroon" />
		<use xlink:href="#mercator-2"  stroke="green" />
		<use xlink:href="#mercator-3"  stroke="#a80" />
		<use xlink:href="#mercator-10" stroke="blue" />
	</g>

	<!-- Natural Logarithm -->
	<use xlink:href="#ln" stroke="red" stroke-width="0.03" />
</g>

</svg>
